<svg width="98" height="64" viewBox="0 0 98 64" fill="none" xmlns="http://www.w3.org/2000/svg">
<path fill-rule="evenodd" clip-rule="evenodd" d="M3.99427 53.8537C5.97608 53.8537 7.45412 55.2537 7.45412 57.2104C7.45402 58.5374 6.74507 59.6225 5.65031 60.1639L7.84 64H5.44819L3.51422 60.5373H2.14145V64H0V53.8537H3.99427ZM2.14145 58.5091H3.85416C4.74999 58.5091 5.28507 57.9572 5.28511 57.1959C5.28511 56.4365 4.75002 55.8819 3.85416 55.8819H2.14145V58.5091Z" fill="white"/>
<path d="M14.112 64H11.76V53.8537H14.112V64Z" fill="white"/>
<path d="M22.7842 61.0259L25.1569 53.8537H27.44L23.7849 64H21.8127L18.032 53.8537H20.3404L22.7842 61.0259Z" fill="white"/>
<path d="M37.472 55.8819H33.5619V57.8857H37.0938V59.8727H33.5619V61.9573H37.632V64H31.36V53.8537H37.472V55.8819Z" fill="white"/>
<path fill-rule="evenodd" clip-rule="evenodd" d="M45.5463 53.8537C47.5281 53.8537 49.0061 55.2537 49.0061 57.2104C49.006 58.5374 48.2971 59.6225 47.2023 60.1639L49.392 64H47.0002L45.0662 60.5373H43.6935V64H41.552V53.8537H45.5463ZM43.6935 58.5091H45.4062C46.302 58.5091 46.8371 57.9572 46.8371 57.1959C46.8371 56.4365 46.302 55.8819 45.4062 55.8819H43.6935V58.5091Z" fill="white"/>
<path d="M55.5729 61.9627H59.584V64H53.312V53.8537H55.5729V61.9627Z" fill="white"/>
<path fill-rule="evenodd" clip-rule="evenodd" d="M72.912 64H70.521L69.8097 62.0762H65.7572L65.0582 64H62.72L66.712 53.8537H68.7922L72.912 64ZM66.4448 60.1631H69.1168L67.7739 56.5351L66.4448 60.1631Z" fill="white"/>
<path d="M82.5076 60.0419V53.8537H84.672V64H82.8276L78.2124 57.6593V64H76.048V53.8537H78.0386L82.5076 60.0419Z" fill="white"/>
<path fill-rule="evenodd" clip-rule="evenodd" d="M93.0602 53.8537C95.9263 53.8537 97.9998 55.9843 98 58.9146C98 61.8572 95.9152 64 93.0602 64H89.376V53.8537H93.0602ZM91.483 61.9627H93.0074C94.6808 61.9627 95.8425 60.6885 95.8425 58.9146C95.8423 57.1296 94.6807 55.891 93.0074 55.891H91.483V61.9627Z" fill="white"/>
<path fill-rule="evenodd" clip-rule="evenodd" d="M48.9097 13.2683C52.1519 13.2683 54.5538 15.457 54.5538 18.5175C54.5537 20.9318 53.0121 22.8162 50.7326 23.4703L54.88 30.439H52.4323L48.4541 23.7195H44.5081V30.439H42.336V13.2683H48.9097ZM44.5081 21.6791H48.7963C50.9186 21.6791 52.3366 20.3517 52.3366 18.4947C52.3365 16.6576 50.9163 15.3087 48.7963 15.3087H44.5081V21.6791Z" fill="white"/>
<path fill-rule="evenodd" clip-rule="evenodd" d="M65.072 6.73018V28.2477C65.072 37.2168 57.7008 44.4878 48.608 44.4878C39.5152 44.4878 32.144 37.2168 32.144 28.2477V6.73018L48.608 0L65.072 6.73018ZM34.2977 8.14939V28.2477C34.2977 36.031 40.7171 42.3636 48.608 42.3636C56.4989 42.3636 62.9183 36.031 62.9183 28.2477V8.14939L48.608 2.29954L34.2977 8.14939Z" fill="white"/>
</svg>
