<svg width="200" height="65" viewBox="0 -10 200 65" fill="none" xmlns="http://www.w3.org/2000/svg">
<path d="M76.7072 29.863C77.906 29.8345 83.7826 29.7253 84.603 29.9326C84.8349 30.2182 85.0367 31.7127 85.107 32.1642C85.7878 36.5331 90.9017 37.9975 94.2331 35.5003C96.1797 34.041 95.8811 31.9943 96.377 29.863C97.5103 29.834 103.299 29.7347 104.088 29.9217C104.689 30.6142 104.02 33.6493 103.799 34.5792C102.608 39.5887 98.4895 43.5304 93.276 43.9812C93.0886 43.9977 92.8146 44.1533 92.6715 44.2872H88.2154C87.7993 43.9802 85.7173 43.6168 85.0276 43.3958C79.2886 41.5566 76.5587 35.5644 76.7072 29.863Z" fill="#FEFEFF"/>
<path d="M191.953 29.8642C193.123 29.7894 199.182 29.7208 200 30.0203V43.1685C199.006 43.7126 193.226 43.5108 191.836 43.4341C191.806 42.7806 191.68 40.7953 191.755 40.2533C189.993 41.5874 188.818 42.5858 186.705 43.4717C185.806 43.8487 184.709 43.8055 184.071 44.2872H180.163C179.737 43.9741 178.153 43.6644 177.53 43.4611C172.004 41.6616 167.345 35.6585 167.178 29.8282C169.709 29.8952 172.529 29.8305 175.084 29.8282C175.367 30.5096 175.636 31.1989 175.935 31.877C178.296 37.2426 185.378 38.5887 189.508 34.3824C190.927 32.9369 191.283 31.7215 191.953 29.8642Z" fill="#FEFEFF"/>
<path d="M112.368 29.8645C114.822 29.7467 117.739 29.8489 120.269 29.8105C120.388 32.2981 120.268 35.2788 120.304 37.8035C120.324 39.1263 120.375 42.3149 120.24 43.5022C117.663 43.4205 114.88 43.5901 112.325 43.4541C112.238 42.1841 112.167 30.5158 112.368 29.8645Z" fill="#FEFEFF"/>
<path d="M24.5433 29.8544C27.1121 29.7796 29.9275 29.8319 32.5151 29.8278C32.5793 31.2294 32.6146 43.1504 32.4232 43.4987C29.7778 43.5108 27.2112 43.4076 24.5531 43.5046C24.3978 42.6995 24.407 38.4531 24.4385 37.4509C24.5049 35.3334 24.3042 31.8477 24.5433 29.8544Z" fill="#FEFEFF"/>
<path d="M40.616 29.8579C43.1049 29.7629 46.105 29.8321 48.6258 29.8293C48.7228 30.9828 48.7643 42.777 48.544 43.503C46.356 43.3212 42.943 43.4734 40.5788 43.4287C40.4564 40.6545 40.6042 37.5477 40.5436 34.7432C40.5272 33.9854 40.5083 30.4417 40.616 29.8579Z" fill="#FEFEFF"/>
<path d="M0.0922983 29.8595C2.48301 29.7352 5.61189 29.8382 8.10164 29.8145C8.25317 31.172 8.17464 33.9914 8.19125 35.4811C11.9651 35.5422 16.3671 35.5961 20.1221 35.462C20.1273 37.9318 20.1361 40.4144 20.1331 42.8848C20.1327 43.2191 20.1176 43.311 19.9163 43.5014C18.1202 43.3451 14.6917 43.4462 12.7968 43.4467C8.54873 43.4323 4.30064 43.4453 0.0527778 43.4858C-0.0336022 42.547 -0.00941427 30.1489 0.0922983 29.8595Z" fill="#FEFEFF"/>
<path d="M153.077 29.8418C154.253 29.8367 160.319 29.7239 161.022 29.9675C161.365 30.3981 161.087 41.3396 161.164 42.8597C161.175 43.0553 161.076 43.2945 160.948 43.4537C158.323 43.4388 155.697 43.4497 153.072 43.4866C152.856 41.604 152.975 38.3722 152.958 36.3471C152.946 34.7392 152.87 31.2504 153.077 29.8418Z" fill="#FEFEFF"/>
<path d="M140.615 29.8203C140.842 32.7606 140.591 39.9666 140.652 43.2671C140.606 43.3266 140.566 43.3775 140.532 43.4197L140.164 43.4267C138.219 43.4015 134.614 43.3435 132.741 43.4741C132.614 41.1543 132.724 38.2627 132.702 35.8994C132.688 34.3893 132.622 31.4556 132.762 30.05C132.973 29.8351 133.024 29.899 133.396 29.8673C135.764 29.801 138.204 29.8862 140.615 29.8203Z" fill="#FEFEFF"/>
<path d="M63.7629 29.8383C63.8105 32.8323 63.7593 35.895 63.7824 38.894C63.789 39.7521 63.8362 42.8035 63.7151 43.4533C62.7862 43.4349 56.1324 43.5384 55.8642 43.3888C55.6318 42.5137 55.7046 39.3968 55.7042 38.3677C55.6899 35.5269 55.7002 32.686 55.7347 29.8454L63.7629 29.8383Z" fill="#FEFEFF"/>
<path d="M167.265 23.7357C168.912 13.6372 179.788 7.47338 188.928 12.7757C189.375 13.0349 191.571 14.8023 191.779 14.8311C191.813 14.5203 191.735 14.2539 191.745 13.939C191.769 13.1956 191.808 12.4497 191.846 11.7071C193.465 11.6482 195.124 11.6518 196.745 11.6484C197.702 11.6464 199.217 11.4791 200 11.9657V24.8251C199.249 25.2919 193.422 25.0942 192.086 25.0908C191.698 24.5217 191.548 24.0152 191.301 23.3859C190.504 21.3846 188.95 19.7772 186.976 18.9107C183.975 17.6134 180.214 18.1444 177.831 20.4282C176.424 21.7771 175.795 23.3389 175.038 25.0888C172.966 25.2176 169.384 25.094 167.193 25.0924C167.192 24.6413 167.19 24.199 167.265 23.7357Z" fill="#FEFEFF"/>
<path d="M139.535 16.3388C142.847 12.3777 146.431 10.4294 151.78 10.9569C154.47 11.2223 156.913 12.4323 158.649 14.5087C160.413 16.6174 160.71 19.2452 160.897 21.8822C161.008 23.2239 161.263 23.5765 161.102 25.07C160.272 25.1317 158.917 25.0951 158.047 25.0963C156.333 25.1067 154.619 25.1023 152.904 25.083C152.722 24.2871 152.69 23.1557 152.5 22.2715C151.517 17.6788 146.598 17.1306 143.39 19.8698C142.699 20.4598 142.393 20.9964 141.93 21.7687C141.388 22.7547 141.143 23.9543 141.02 25.0591C140.296 25.1279 138.909 25.0963 138.129 25.0978L132.66 25.1006C132.565 23.6809 132.137 21.8579 131.447 20.6578C128.86 16.1614 122.41 18.4229 121.172 22.7994C120.955 23.5683 120.812 24.3027 120.622 25.0591C118.275 25.1204 114.655 25.1722 112.333 25.063C112.206 24.0095 112.274 21.6784 112.275 20.497L112.285 11.7587C114.478 11.4253 118.016 11.9181 120.248 11.5431C120.33 12.6636 120.314 13.9795 120.322 15.1187C120.907 14.7372 121.81 13.8485 122.453 13.3779C124.955 11.5478 127.008 11.0138 129.998 10.8979C130.437 10.8877 131.493 10.9357 131.91 10.9851C134.28 11.2616 136.456 12.4286 137.998 14.2497C138.528 14.8819 138.999 15.6624 139.535 16.3388Z" fill="#FEFEFF"/>
<path d="M104.525 11.5748C104.745 13.9951 104.509 17.382 104.601 19.894C104.628 20.645 104.633 24.3884 104.532 24.9214C104.33 25.1082 104.286 25.061 103.975 25.0994C101.955 25.0654 98.824 25.2237 96.7444 24.9922C96.7049 24.9877 96.6068 24.9124 96.5781 24.8677C96.4784 24.712 96.3822 24.0873 96.3927 23.9216C96.4936 22.3236 96.245 12.5413 96.5147 11.8526C96.8131 11.6514 96.8005 11.7143 97.2128 11.6902C99.5517 11.5523 102.155 11.798 104.525 11.5748Z" fill="#FEFEFF"/>
<path d="M48.4285 0.00547808C48.8049 0.418675 48.6668 3.31378 48.6657 4.04595C48.6467 6.5522 48.6538 9.05857 48.6872 11.5646C49.8922 11.739 52.1711 11.6983 53.3686 11.556C53.4172 13.8837 53.3819 16.3177 53.3792 18.6533C51.8436 18.6072 50.2168 18.6429 48.6739 18.6536C48.6544 20.8029 48.6728 22.9438 48.6379 25.0959C46.1992 25.1326 43.6748 25.097 41.2296 25.0943C40.9621 25.1017 40.8771 25.1111 40.6305 24.9863C40.4557 24.4592 40.5477 19.4702 40.553 18.6173L36.5611 18.6599C36.3908 16.9393 36.4392 13.3802 36.5685 11.6824C37.6214 11.7379 39.4639 11.6461 40.5753 11.6268C40.476 8.11203 40.4874 3.68128 40.5741 0.161603C41.6684 0.16954 47.8509 0.287348 48.3863 0L48.4285 0.00547808Z" fill="#FEFEFF"/>
<path d="M69.392 10.9006C70.226 10.9142 72.0103 10.9709 72.5168 11.7376C72.7427 12.7144 70.7892 17.3637 70.3201 18.528C65.7742 16.8689 64.6946 19.8453 63.9812 23.697C63.892 24.1782 63.8312 24.6116 63.8 25.1068C61.207 25.09 58.6137 25.0891 56.0208 25.1037C55.9395 25.1034 55.8641 25.0407 55.7926 24.9949C55.6614 24.4689 55.6932 21.2593 55.7003 20.5761C55.731 17.6483 55.6536 14.6222 55.7465 11.7024C58.021 11.6635 60.2961 11.6447 62.571 11.6452C62.5959 12.3079 62.4089 14.7771 62.7831 15.1465C63.0959 14.7711 63.2181 14.1869 63.8834 13.5062C65.6905 11.6571 66.8437 11.0161 69.392 10.9006Z" fill="#FEFEFF"/>
<path d="M32.393 11.5948C32.6557 11.974 32.5364 23.4742 32.5288 25.0814L24.656 25.1033L24.5868 25.0411C24.3443 24.3802 24.389 12.9738 24.5175 11.6953C26.381 11.6505 30.803 11.7942 32.3496 11.5627L32.393 11.5948Z" fill="#FEFEFF"/>
<path d="M0.00190994 0.58772C2.4253 0.485252 5.22398 0.580897 7.71035 0.545852C7.74618 0.546128 7.96626 0.603165 8.01713 0.615502C8.29489 1.11611 8.15851 3.47554 8.15838 4.19778L8.16151 11.1874C8.16465 15.7072 8.27789 20.6297 8.13216 25.0963L0.359159 25.1029L0.187382 25.0689C-0.0949176 24.7057 0.0375566 18.2415 0.0375175 17.3178L0.00190994 0.58772Z" fill="#FEFEFF"/>
<path d="M84.6011 11.5701C84.7514 12.73 84.7001 15.6753 84.6833 17.0286C84.6512 19.6149 84.7641 22.5531 84.643 25.0943L76.668 25.0978C76.6418 24.3196 76.6397 23.5102 76.65 22.7317C76.6989 19.0635 76.5635 15.3489 76.6708 11.6859C78.484 11.6452 83.1029 11.7995 84.6011 11.5701Z" fill="#FEFEFF"/>
<path d="M24.5269 3.52554C27.0138 3.51236 30.0613 3.43762 32.5014 3.56819C32.5142 4.96733 32.5473 6.427 32.5139 7.82074L24.4815 7.83248C24.4555 6.39674 24.4707 4.96042 24.5269 3.52554Z" fill="#FEFEFF"/>
</svg>
