<svg width="209" height="54" viewBox="0 0 209 54" fill="none" xmlns="http://www.w3.org/2000/svg">
<path d="M103.645 47.1892V50.8635H103.084L101.058 48.3755V50.8635H100.381V47.1892H100.942L102.968 49.6772V47.1892H103.645ZM107.385 50.2914V50.8635H104.629V47.1892H107.311V47.7614H105.311V48.7167H107.086V49.2783H105.311V50.2914H107.385ZM109.408 49.3255L108.825 49.9239V50.8635H108.143V47.1892H108.825V49.0736L110.641 47.1892H111.408L109.864 48.8321L111.502 50.8635H110.704L109.408 49.3255ZM111.966 47.1892H112.649V50.8635H111.966V47.1892ZM113.638 47.1892H114.32V50.2861H116.241V50.8635H113.638V47.1892ZM120.043 47.1892V50.8635H119.482L117.456 48.3755V50.8635H116.779V47.1892H117.34L119.366 49.6772V47.1892H120.043ZM122.744 47.1367C123.118 47.1367 123.456 47.2181 123.757 47.3808C124.058 47.5435 124.294 47.7684 124.465 48.0553C124.637 48.3422 124.722 48.6659 124.722 49.0264C124.722 49.3868 124.637 49.7105 124.465 49.9974C124.294 50.2844 124.058 50.5092 123.757 50.6719C123.456 50.8346 123.118 50.916 122.744 50.916C122.369 50.916 122.032 50.8346 121.731 50.6719C121.43 50.5092 121.193 50.2835 121.022 49.9948C120.851 49.7061 120.765 49.3833 120.765 49.0264C120.765 48.6694 120.851 48.3466 121.022 48.0579C121.193 47.7692 121.43 47.5435 121.731 47.3808C122.032 47.2181 122.369 47.1367 122.744 47.1367ZM127.039 47.1892V49.6247C127.039 50.0551 126.934 50.378 126.725 50.5932C126.515 50.8084 126.207 50.916 125.801 50.916C125.566 50.916 125.35 50.8696 125.152 50.7769C124.955 50.6841 124.793 50.5538 124.667 50.3858L125.055 49.9187C125.258 50.1986 125.501 50.3386 125.785 50.3386C126.166 50.3386 126.357 50.1129 126.357 49.6615V47.7614H125.05V47.1892H127.039ZM122.744 47.7351C122.499 47.7351 122.278 47.7902 122.082 47.9004C121.886 48.0107 121.732 48.1646 121.62 48.3624C121.508 48.5601 121.452 48.7814 121.452 49.0264C121.452 49.2713 121.508 49.4926 121.62 49.6903C121.732 49.8881 121.886 50.042 122.082 50.1522C122.278 50.2625 122.499 50.3176 122.744 50.3176C122.989 50.3176 123.209 50.2625 123.405 50.1522C123.601 50.042 123.755 49.8881 123.867 49.6903C123.979 49.4926 124.035 49.2713 124.035 49.0264C124.035 48.7814 123.979 48.5601 123.867 48.3624C123.755 48.1646 123.601 48.0107 123.405 47.9004C123.209 47.7902 122.989 47.7351 122.744 47.7351ZM130.191 50.0132H128.354L127.992 50.8635H127.288L128.942 47.1892H129.614L131.272 50.8635H130.558L130.191 50.0132ZM129.965 49.4778L129.272 47.8716L128.585 49.4778H129.965ZM135.111 50.8635L135.106 48.428L133.899 50.4436H133.594L132.387 48.4595V50.8635H131.736V47.1892H132.298L133.757 49.6247L135.19 47.1892H135.752L135.757 50.8635H135.111ZM138.462 47.1367C138.837 47.1367 139.175 47.2181 139.476 47.3808C139.776 47.5435 140.013 47.7684 140.184 48.0553C140.356 48.3422 140.441 48.6659 140.441 49.0264C140.441 49.3868 140.356 49.7105 140.184 49.9974C140.013 50.2844 139.776 50.5092 139.476 50.6719C139.175 50.8346 138.837 50.916 138.462 50.916C138.088 50.916 137.75 50.8346 137.449 50.6719C137.148 50.5092 136.912 50.2835 136.741 49.9948C136.569 49.7061 136.484 49.3833 136.484 49.0264C136.484 48.6694 136.569 48.3466 136.741 48.0579C136.912 47.7692 137.148 47.5435 137.449 47.3808C137.75 47.2181 138.088 47.1367 138.462 47.1367ZM142.758 47.1892V49.6247C142.758 50.0551 142.653 50.378 142.443 50.5932C142.233 50.8084 141.925 50.916 141.52 50.916C141.285 50.916 141.069 50.8696 140.871 50.7769C140.674 50.6841 140.512 50.5538 140.386 50.3858L140.774 49.9187C140.977 50.1986 141.22 50.3386 141.504 50.3386C141.885 50.3386 142.076 50.1129 142.076 49.6615V47.7614H140.769V47.1892H142.758ZM138.462 47.7351C138.218 47.7351 137.997 47.7902 137.801 47.9004C137.605 48.0107 137.451 48.1646 137.339 48.3624C137.227 48.5601 137.171 48.7814 137.171 49.0264C137.171 49.2713 137.227 49.4926 137.339 49.6903C137.451 49.8881 137.605 50.042 137.801 50.1522C137.997 50.2625 138.218 50.3176 138.462 50.3176C138.707 50.3176 138.928 50.2625 139.124 50.1522C139.32 50.042 139.474 49.8881 139.586 49.6903C139.698 49.4926 139.754 49.2713 139.754 49.0264C139.754 48.7814 139.698 48.5601 139.586 48.3624C139.474 48.1646 139.32 48.0107 139.124 47.9004C138.928 47.7902 138.707 47.7351 138.462 47.7351ZM145.427 50.916C145.052 50.916 144.715 50.8346 144.414 50.6719C144.113 50.5092 143.877 50.2835 143.705 49.9948C143.534 49.7061 143.448 49.3833 143.448 49.0264C143.448 48.6694 143.534 48.3466 143.705 48.0579C143.877 47.7692 144.113 47.5435 144.414 47.3808C144.715 47.2181 145.052 47.1367 145.427 47.1367C145.801 47.1367 146.139 47.2181 146.44 47.3808C146.741 47.5435 146.977 47.7684 147.149 48.0553C147.32 48.3422 147.406 48.6659 147.406 49.0264C147.406 49.3868 147.32 49.7105 147.149 49.9974C146.977 50.2844 146.741 50.5092 146.44 50.6719C146.139 50.8346 145.801 50.916 145.427 50.916ZM145.427 50.3176C145.672 50.3176 145.892 50.2625 146.088 50.1522C146.284 50.042 146.438 49.8881 146.55 49.6903C146.662 49.4926 146.718 49.2713 146.718 49.0264C146.718 48.7814 146.662 48.5601 146.55 48.3624C146.438 48.1646 146.284 48.0107 146.088 47.9004C145.892 47.7902 145.672 47.7351 145.427 47.7351C145.182 47.7351 144.962 47.7902 144.766 47.9004C144.57 48.0107 144.416 48.1646 144.304 48.3624C144.192 48.5601 144.136 48.7814 144.136 49.0264C144.136 49.2713 144.192 49.4926 144.304 49.6903C144.416 49.8881 144.57 50.042 144.766 50.1522C144.962 50.2625 145.182 50.3176 145.427 50.3176ZM150.318 47.7666H149.1V47.1892H152.218V47.7666H151V50.8635H150.318V47.7666ZM154.241 50.916C153.734 50.916 153.338 50.7734 153.055 50.4882C152.771 50.203 152.63 49.7944 152.63 49.2626V47.1892H153.312V49.2363C153.312 49.9572 153.624 50.3176 154.246 50.3176C154.866 50.3176 155.176 49.9572 155.176 49.2363V47.1892H155.847V49.2626C155.847 49.7944 155.707 50.203 155.425 50.4882C155.143 50.7734 154.749 50.916 154.241 50.916ZM159.204 50.8635L158.453 49.7874L158.408 49.7908C158.39 49.7916 158.37 49.7922 158.347 49.7925L157.482 49.7927V50.8635H156.8V47.1892H158.311C158.63 47.1892 158.907 47.2417 159.143 47.3467C159.379 47.4517 159.561 47.6021 159.687 47.7981C159.813 47.9941 159.875 48.2268 159.875 48.4962C159.875 48.7727 159.808 49.0106 159.673 49.2101C159.539 49.4095 159.345 49.5582 159.093 49.6562L159.938 50.8635H159.204ZM159.188 48.4962C159.188 48.2618 159.111 48.0815 158.957 47.9556C158.803 47.8296 158.577 47.7666 158.28 47.7666H157.482V49.2311H158.28C158.577 49.2311 158.803 49.1672 158.957 49.0395C159.111 48.9117 159.188 48.7307 159.188 48.4962ZM165.202 47.1367C165.577 47.1367 165.914 47.2181 166.215 47.3808C166.516 47.5435 166.752 47.7684 166.924 48.0553C167.095 48.3422 167.181 48.6659 167.181 49.0264C167.181 49.3868 167.095 49.7105 166.924 49.9974C166.752 50.2844 166.516 50.5092 166.215 50.6719C165.914 50.8346 165.577 50.916 165.202 50.916C164.828 50.916 164.49 50.8346 164.189 50.6719C163.888 50.5092 163.652 50.2835 163.481 49.9948C163.309 49.7061 163.223 49.3833 163.223 49.0264C163.223 48.6694 163.309 48.3466 163.481 48.0579C163.652 47.7692 163.888 47.5435 164.189 47.3808C164.49 47.2181 164.828 47.1367 165.202 47.1367ZM163.227 47.1892V47.7666H162.009V50.8635H161.326V47.7666H160.109V47.1892H163.227ZM165.202 47.7351C164.957 47.7351 164.737 47.7902 164.541 47.9004C164.345 48.0107 164.191 48.1646 164.079 48.3624C163.967 48.5601 163.911 48.7814 163.911 49.0264C163.911 49.2713 163.967 49.4926 164.079 49.6903C164.191 49.8881 164.345 50.042 164.541 50.1522C164.737 50.2625 164.957 50.3176 165.202 50.3176C165.447 50.3176 165.668 50.2625 165.864 50.1522C166.06 50.042 166.214 49.8881 166.326 49.6903C166.438 49.4926 166.494 49.2713 166.494 49.0264C166.494 48.7814 166.438 48.5601 166.326 48.3624C166.214 48.1646 166.06 48.0107 165.864 47.9004C165.668 47.7902 165.447 47.7351 165.202 47.7351ZM170.86 47.1892C171.178 47.1892 171.456 47.2417 171.692 47.3467C171.928 47.4517 172.109 47.6021 172.235 47.7981C172.361 47.9941 172.424 48.2268 172.424 48.4962C172.424 48.7622 172.361 48.994 172.235 49.1917C172.109 49.3894 171.928 49.5407 171.692 49.6457C171.456 49.7507 171.178 49.8032 170.86 49.8032H170.03V50.8635H169.348V47.1892H170.86ZM170.828 49.2258C171.126 49.2258 171.351 49.1628 171.505 49.0368C171.659 48.9109 171.736 48.7307 171.736 48.4962C171.736 48.2618 171.659 48.0815 171.505 47.9556C171.351 47.8296 171.126 47.7666 170.828 47.7666H170.03V49.2258H170.828ZM175.507 50.8635L174.757 49.7874L174.711 49.7908C174.694 49.7916 174.674 49.7922 174.651 49.7925L173.786 49.7927V50.8635H173.103V47.1892H174.615C174.933 47.1892 175.211 47.2417 175.447 47.3467C175.683 47.4517 175.864 47.6021 175.99 47.7981C176.116 47.9941 176.179 48.2268 176.179 48.4962C176.179 48.7727 176.112 49.0106 175.977 49.2101C175.842 49.4095 175.649 49.5582 175.397 49.6562L176.242 50.8635H175.507ZM175.492 48.4962C175.492 48.2618 175.415 48.0815 175.261 47.9556C175.107 47.8296 174.881 47.7666 174.583 47.7666H173.786V49.2311H174.583C174.881 49.2311 175.107 49.1672 175.261 49.0395C175.415 48.9117 175.492 48.7307 175.492 48.4962ZM178.654 50.916C178.279 50.916 177.941 50.8346 177.641 50.6719C177.34 50.5092 177.103 50.2835 176.932 49.9948C176.76 49.7061 176.675 49.3833 176.675 49.0264C176.675 48.6694 176.76 48.3466 176.932 48.0579C177.103 47.7692 177.34 47.5435 177.641 47.3808C177.941 47.2181 178.279 47.1367 178.654 47.1367C179.028 47.1367 179.366 47.2181 179.667 47.3808C179.968 47.5435 180.204 47.7684 180.375 48.0553C180.547 48.3422 180.632 48.6659 180.632 49.0264C180.632 49.3868 180.547 49.7105 180.375 49.9974C180.204 50.2844 179.968 50.5092 179.667 50.6719C179.366 50.8346 179.028 50.916 178.654 50.916ZM178.654 50.3176C178.899 50.3176 179.119 50.2625 179.315 50.1522C179.511 50.042 179.665 49.8881 179.777 49.6903C179.889 49.4926 179.945 49.2713 179.945 49.0264C179.945 48.7814 179.889 48.5601 179.777 48.3624C179.665 48.1646 179.511 48.0107 179.315 47.9004C179.119 47.7902 178.899 47.7351 178.654 47.7351C178.409 47.7351 178.188 47.7902 177.992 47.9004C177.796 48.0107 177.642 48.1646 177.53 48.3624C177.418 48.5601 177.362 48.7814 177.362 49.0264C177.362 49.2713 177.418 49.4926 177.53 49.6903C177.642 49.8881 177.796 50.042 177.992 50.1522C178.188 50.2625 178.409 50.3176 178.654 50.3176ZM181.354 47.1892H182.96C183.352 47.1892 183.7 47.2653 184.004 47.4175C184.309 47.5698 184.545 47.785 184.713 48.0632C184.881 48.3414 184.965 48.6624 184.965 49.0264C184.965 49.3903 184.881 49.7113 184.713 49.9895C184.545 50.2677 184.309 50.4829 184.004 50.6352C183.7 50.7874 183.352 50.8635 182.96 50.8635H181.354V47.1892ZM182.928 50.2861C183.198 50.2861 183.435 50.2345 183.64 50.1313C183.844 50.028 184.002 49.8811 184.112 49.6903C184.222 49.4996 184.277 49.2783 184.277 49.0264C184.277 48.7744 184.222 48.5531 184.112 48.3624C184.002 48.1716 183.844 48.0247 183.64 47.9214C183.435 47.8182 183.198 47.7666 182.928 47.7666H182.036V50.2861H182.928ZM185.686 47.1892H186.369V50.8635H185.686V47.1892ZM188.938 50.916C188.43 50.916 188.035 50.7734 187.751 50.4882C187.468 50.203 187.326 49.7944 187.326 49.2626V47.1892H188.008V49.2363C188.008 49.9572 188.32 50.3176 188.943 50.3176C189.562 50.3176 189.872 49.9572 189.872 49.2363V47.1892H190.544V49.2626C190.544 49.7944 190.403 50.203 190.121 50.4882C189.84 50.7734 189.445 50.916 188.938 50.916ZM192.635 50.916C192.352 50.916 192.078 50.8757 191.814 50.7952C191.549 50.7148 191.34 50.608 191.186 50.4751L191.422 49.9449C191.573 50.0639 191.758 50.161 191.976 50.2362C192.195 50.3115 192.415 50.3491 192.635 50.3491C192.908 50.3491 193.112 50.3053 193.247 50.2179C193.381 50.1304 193.449 50.0149 193.449 49.8714C193.449 49.7665 193.411 49.6798 193.336 49.6116C193.26 49.5434 193.165 49.49 193.05 49.4515C192.949 49.4178 192.815 49.3801 192.65 49.3384L192.577 49.3203C192.297 49.2538 192.071 49.1873 191.898 49.1208C191.724 49.0543 191.576 48.9502 191.451 48.8085C191.327 48.6668 191.265 48.4752 191.265 48.2338C191.265 48.0308 191.32 47.8462 191.43 47.68C191.541 47.5138 191.707 47.3817 191.929 47.2837C192.151 47.1857 192.423 47.1367 192.745 47.1367C192.969 47.1367 193.19 47.1647 193.407 47.2207C193.624 47.2767 193.811 47.3572 193.968 47.4622L193.753 47.9923C193.592 47.8978 193.424 47.8261 193.249 47.7771C193.074 47.7281 192.904 47.7036 192.74 47.7036C192.471 47.7036 192.27 47.7491 192.139 47.8401C192.008 47.9311 191.942 48.0518 191.942 48.2023C191.942 48.3072 191.98 48.393 192.055 48.4595C192.13 48.5259 192.226 48.5784 192.341 48.6169L192.436 48.6468C192.521 48.6725 192.623 48.7002 192.741 48.73L192.813 48.7482C193.086 48.8111 193.31 48.8768 193.485 48.945C193.66 49.0132 193.81 49.1173 193.934 49.2573C194.058 49.3973 194.12 49.5862 194.12 49.8242C194.12 50.0271 194.065 50.2109 193.955 50.3753C193.845 50.5398 193.678 50.671 193.454 50.769C193.23 50.867 192.957 50.916 192.635 50.916ZM197.55 50.2914V50.8635H194.794V47.1892H197.477V47.7614H195.477V48.7167H197.251V49.2783H195.477V50.2914H197.55ZM200.712 50.8635L199.962 49.7874L199.916 49.7908C199.899 49.7916 199.878 49.7922 199.856 49.7925L198.991 49.7927V50.8635H198.308V47.1892H199.82C200.138 47.1892 200.416 47.2417 200.652 47.3467C200.888 47.4517 201.069 47.6021 201.195 47.7981C201.321 47.9941 201.384 48.2268 201.384 48.4962C201.384 48.7727 201.317 49.0106 201.182 49.2101C201.047 49.4095 200.854 49.5582 200.602 49.6562L201.447 50.8635H200.712ZM200.697 48.4962C200.697 48.2618 200.62 48.0815 200.466 47.9556C200.312 47.8296 200.086 47.7666 199.788 47.7666H198.991V49.2311H199.788C200.086 49.2311 200.312 49.1672 200.466 49.0395C200.62 48.9117 200.697 48.7307 200.697 48.4962ZM202.142 47.1892H202.825V50.8635H202.142V47.1892ZM206.196 50.0132H204.359L203.997 50.8635H203.294L204.947 47.1892H205.619L207.278 50.8635H206.564L206.196 50.0132ZM205.971 49.4778L205.278 47.8716L204.59 49.4778H205.971ZM207.742 47.1892H208.424V50.8635H207.742V47.1892ZM0 53.0885H52.2319V47.5845H0V53.0885ZM84.4259 33.9773C80.5335 33.9773 77.3786 30.822 77.3786 26.9297C77.3786 23.0373 80.5335 19.8821 84.4259 19.8821C88.3182 19.8821 91.4735 23.0373 91.4735 26.9297C91.4735 30.7831 88.381 33.9141 84.5424 33.9763L84.4259 33.9773ZM97.2258 14.9974H92.4661L94.1455 19.7412C94.0923 19.6172 92.9288 16.9654 90.0809 15.3935C88.52 14.5231 86.5595 14.1298 84.5894 14.1298C77.6108 14.1298 71.9536 19.7873 71.9536 26.7659C71.9536 33.7447 77.6108 39.402 84.5894 39.402C87.3452 39.402 89.8931 38.5173 91.9696 37.0199V41.7807H91.9585C91.9492 42.0569 91.9285 42.335 91.8849 42.6151C91.3007 46.361 87.7911 48.9242 84.0452 48.3403C80.668 47.8137 78.2604 44.9075 78.2456 41.5957L72.6152 41.5199C72.5238 47.5573 76.888 52.8948 83.0246 53.8513C89.741 54.8984 96.0342 50.3025 97.081 43.5864L97.1071 43.411C97.1821 42.8807 97.2258 42.2971 97.2258 41.1686V14.9974ZM63.9039 38.9268H69.408V14.9974H63.8418L63.9039 38.9268ZM69.5097 10.2016C69.5097 11.7949 68.218 13.0866 66.625 13.0866C65.0318 13.0866 63.7401 11.7949 63.7401 10.2016C63.7401 8.60835 65.0318 7.31695 66.625 7.31695C68.218 7.31695 69.5097 8.60835 69.5097 10.2016ZM22.4118 10.2016L22.4113 27.3705L23.344 30.4133L6.72867 10.2016H0V38.9268H5.75621V18.4506L22.5505 38.9268H28.1675L28.168 10.2016H22.4118ZM42.1347 14.978H52.2383V10.2015H30.8752V14.978H38.6787V38.9267H44.4349V16.5626L42.1347 14.978ZM60.7492 3.95524L55.2454 0V38.9269H60.8113L60.7492 3.95524ZM172.647 31.7387C172.425 32.0104 172.182 32.2706 171.914 32.5135C168.916 35.2293 164.267 34.999 161.552 32.0011C158.836 29.003 159.066 24.3545 162.064 21.639C165.062 18.9237 169.71 19.1537 172.426 22.1519C172.854 22.6246 173.201 23.1417 173.483 23.6825L177.518 20.0281C177.179 19.5224 176.801 19.0341 176.38 18.5698C171.69 13.3911 163.661 12.9942 158.482 17.6846C153.304 22.3752 152.906 30.4042 157.597 35.5829C162.288 40.7617 170.317 41.1586 175.495 36.4679C176.474 35.5821 177.278 34.5758 177.912 33.4932L172.647 31.7387ZM139.689 14.4107C136.098 14.4107 132.041 16.5292 129.956 19.664L131.676 14.9974H127.475V38.9329H132.98V25.9796C132.98 22.5375 136.247 19.7471 139.689 19.7471C143.131 19.7471 146.398 22.5375 146.398 25.9796V38.9329H151.902V26.6239C151.902 19.8787 146.434 14.4107 139.689 14.4107ZM191.673 19.7456C194.817 19.7456 197.491 21.7288 198.533 24.5098H184.813C185.841 21.7636 188.462 19.7953 191.555 19.7465L191.673 19.7456ZM197.323 31.7379C195.981 33.3678 193.95 34.4079 191.673 34.4079C188.222 34.4079 185.335 32.0203 184.556 28.8091H204.218C204.295 28.2422 204.339 27.6647 204.339 27.0769C204.339 20.0816 198.668 14.4112 191.673 14.4112C184.678 14.4112 179.007 20.0816 179.007 27.0769C179.007 34.0717 184.678 39.7424 191.673 39.7424C196.326 39.7424 200.391 37.2314 202.592 33.4919L197.323 31.7379ZM112.34 19.7456C115.484 19.7456 118.159 21.7288 119.2 24.5098H105.48C106.509 21.7636 109.129 19.7953 112.222 19.7465L112.34 19.7456ZM117.99 31.7379C116.648 33.3678 114.617 34.4079 112.34 34.4079C109.32 34.4079 106.733 32.5799 105.611 29.9716C105.451 29.599 105.321 29.2105 105.223 28.8091H124.885C124.963 28.2422 125.006 27.6647 125.006 27.0769C125.006 20.0816 119.335 14.4112 112.34 14.4112C105.345 14.4112 99.6744 20.0816 99.6744 27.0769C99.6744 34.0717 105.345 39.7424 112.34 39.7424C116.993 39.7424 121.058 37.2314 123.26 33.4919L117.99 31.7379Z" fill="white"/>
</svg>
