<svg width="14" height="12" viewBox="0 0 14 12" fill="none" xmlns="http://www.w3.org/2000/svg">
<path d="M1.13879 5.47656C0.72458 5.47656 0.388794 5.81235 0.388794 6.22656C0.388794 6.64078 0.72458 6.97656 1.13879 6.97656V6.22656V5.47656ZM13.2264 6.75689C13.5193 6.464 13.5193 5.98913 13.2264 5.69623L8.45343 0.923262C8.16053 0.630368 7.68566 0.630368 7.39277 0.923262C7.09987 1.21616 7.09987 1.69103 7.39277 1.98392L11.6354 6.22656L7.39277 10.4692C7.09987 10.7621 7.09987 11.237 7.39277 11.5299C7.68566 11.8228 8.16053 11.8228 8.45343 11.5299L13.2264 6.75689ZM1.13879 6.22656V6.97656L12.6961 6.97656V6.22656V5.47656L1.13879 5.47656V6.22656Z" fill="white"/>
</svg>
