<svg width="104" height="26" viewBox="0 0 104 26" fill="none" xmlns="http://www.w3.org/2000/svg">
<path d="M4.08447 25.4629H0L9.16016 -0.000976562H13.6035L22.7466 25.4629H18.6792L11.4673 4.63037H11.2622L4.08447 25.4629ZM4.76807 15.4995H17.9785V18.7124H4.76807V15.4995ZM23.5936 25.4629V6.35645H27.1653V9.41553H27.3704C27.7236 8.39014 28.3388 7.58122 29.2161 6.98877C30.1048 6.38493 31.1074 6.08301 32.2239 6.08301C32.4518 6.08301 32.7195 6.0944 33.0271 6.11719C33.3462 6.12858 33.6025 6.14567 33.7962 6.16846V9.72314C33.6481 9.67757 33.3803 9.632 32.993 9.58643C32.617 9.54085 32.2353 9.51807 31.8479 9.51807C30.9707 9.51807 30.1845 9.70605 29.4896 10.082C28.806 10.4466 28.2648 10.9536 27.866 11.603C27.4786 12.241 27.285 12.9816 27.285 13.8247V25.4629H23.5936ZM38.232 14.1323V25.4629H34.5406V6.35645H38.1295V9.50098H38.3858C38.8188 8.46419 39.4967 7.64388 40.4195 7.04004C41.3424 6.4248 42.5273 6.11719 43.9742 6.11719C45.273 6.11719 46.4067 6.39062 47.3751 6.9375C48.3549 7.47298 49.1126 8.2762 49.648 9.34717C50.1949 10.4181 50.4684 11.7454 50.4684 13.3291V25.4629H46.777V13.7734C46.777 12.3949 46.4124 11.3125 45.6832 10.5264C44.954 9.72884 43.9628 9.33008 42.7096 9.33008C41.8551 9.33008 41.086 9.52376 40.4024 9.91113C39.7302 10.2871 39.2005 10.8283 38.8131 11.5347C38.4257 12.241 38.232 13.1069 38.232 14.1323ZM61.1933 25.856C59.3248 25.856 57.7069 25.4515 56.3397 24.6426C54.9726 23.8337 53.9187 22.6943 53.1781 21.2246C52.449 19.7435 52.0844 18.0174 52.0844 16.0464C52.0844 14.0868 52.4433 12.3607 53.161 10.8682C53.8902 9.37565 54.9099 8.21354 56.2201 7.38184C57.5417 6.53874 59.0912 6.11719 60.8686 6.11719C61.9509 6.11719 62.9991 6.29378 64.0131 6.64697C65.0271 7.00016 65.9385 7.55843 66.7475 8.32178C67.5564 9.08512 68.1944 10.0763 68.6615 11.2954C69.14 12.5145 69.3793 13.9842 69.3793 15.7046V17.0376H54.1864V14.252H67.4652L65.7392 15.1748C65.7392 14.0013 65.5569 12.9645 65.1923 12.0645C64.8277 11.1644 64.2808 10.4637 63.5517 9.9624C62.8339 9.44971 61.9395 9.19336 60.8686 9.19336C59.7976 9.19336 58.8804 9.44971 58.1171 9.9624C57.3651 10.4751 56.7898 11.153 56.391 11.9961C55.9923 12.8392 55.7929 13.762 55.7929 14.7646V16.6616C55.7929 17.9718 56.0207 19.0827 56.4765 19.9941C56.9322 20.9056 57.5645 21.6006 58.3734 22.0791C59.1937 22.5576 60.1451 22.7969 61.2274 22.7969C61.9338 22.7969 62.5718 22.6943 63.1415 22.4893C63.7226 22.2842 64.2239 21.9766 64.6454 21.5664C65.067 21.1562 65.386 20.6493 65.6024 20.0454L69.1229 20.7119C68.8381 21.7373 68.3368 22.6374 67.619 23.4121C66.9013 24.1868 65.9955 24.7907 64.9018 25.2236C63.8194 25.6452 62.5832 25.856 61.1933 25.856ZM73.0974 6.35645L77.2844 13.8076L81.5397 6.35645H85.6242L79.677 15.9268L85.6584 25.4629H81.6081L77.2844 18.3193L73.029 25.4629H68.9445L74.8747 15.9268L69.0129 6.35645H73.0974ZM94.23 25.856C92.4412 25.856 90.8747 25.4458 89.5303 24.6255C88.1973 23.8052 87.1605 22.6545 86.4199 21.1733C85.6908 19.6922 85.3262 17.9718 85.3262 16.0122C85.3262 14.0298 85.6908 12.298 86.4199 10.8169C87.1605 9.32438 88.1973 8.16797 89.5303 7.34766C90.8747 6.52734 92.4412 6.11719 94.23 6.11719C96.0301 6.11719 97.5967 6.52734 98.9297 7.34766C100.263 8.16797 101.299 9.32438 102.04 10.8169C102.781 12.298 103.151 14.0298 103.151 16.0122C103.151 17.9718 102.781 19.6922 102.04 21.1733C101.299 22.6545 100.263 23.8052 98.9297 24.6255C97.5967 25.4458 96.0301 25.856 94.23 25.856ZM94.23 22.7285C95.4035 22.7285 96.3719 22.4209 97.1353 21.8057C97.8986 21.1904 98.4626 20.3758 98.8271 19.3618C99.2031 18.3364 99.3911 17.2199 99.3911 16.0122C99.3911 14.7817 99.2031 13.6538 98.8271 12.6284C98.4626 11.603 97.8986 10.7827 97.1353 10.1675C96.3719 9.55225 95.4035 9.24463 94.23 9.24463C93.0679 9.24463 92.1051 9.55225 91.3418 10.1675C90.5898 10.7827 90.0259 11.603 89.6499 12.6284C89.2739 13.6538 89.0859 14.7817 89.0859 16.0122C89.0859 17.2199 89.2739 18.3364 89.6499 19.3618C90.0259 20.3758 90.5898 21.1904 91.3418 21.8057C92.1051 22.4209 93.0679 22.7285 94.23 22.7285Z" fill="black"/>
</svg>
