<svg width="17" height="16" viewBox="0 0 17 16" fill="none" xmlns="http://www.w3.org/2000/svg">
<path d="M8.49512 3.99805C10.7036 3.99805 12.4939 5.78863 12.4941 7.99707C12.4941 10.2057 10.7037 11.9961 8.49512 11.9961C6.28668 11.9959 4.49609 10.2055 4.49609 7.99707C4.49629 5.78875 6.2868 3.99824 8.49512 3.99805ZM8.49512 4.72559C6.68828 4.72578 5.22383 6.19023 5.22363 7.99707C5.22363 9.80404 6.68816 11.2693 8.49512 11.2695C10.3022 11.2695 11.7676 9.80416 11.7676 7.99707C11.7674 6.19011 10.3021 4.72559 8.49512 4.72559Z" fill="url(#paint0_linear_721_1894)" stroke="#1C1D20" stroke-width="0.727273"/>
<path d="M12.8584 3.27148C13.0589 3.27172 13.2217 3.43514 13.2217 3.63574C13.2214 3.83614 13.0588 3.99879 12.8584 3.99902C12.6578 3.99902 12.4944 3.83629 12.4941 3.63574C12.4941 3.435 12.6577 3.27148 12.8584 3.27148Z" fill="url(#paint1_linear_721_1894)" stroke="#1C1D20" stroke-width="0.727273"/>
<path d="M7.47656 0.363281H9.5127C10.7399 0.363281 11.6386 0.363965 12.3477 0.421875C13.0527 0.479475 13.5385 0.592531 13.9453 0.799805C14.6977 1.1832 15.31 1.79447 15.6934 2.54688C15.9006 2.95368 16.0127 3.43954 16.0703 4.14453C16.1283 4.85377 16.1289 5.75282 16.1289 6.98047V9.0166C16.1289 10.2438 16.1282 11.1425 16.0703 11.8516C16.0127 12.5565 15.9006 13.0425 15.6934 13.4492C15.31 14.2017 14.6978 14.8139 13.9453 15.1973C13.5386 15.4045 13.0526 15.5166 12.3477 15.5742C11.6386 15.6321 10.7399 15.6328 9.5127 15.6328H7.47656C6.24891 15.6328 5.34986 15.6322 4.64062 15.5742C3.93563 15.5166 3.44977 15.4046 3.04297 15.1973C2.29057 14.8139 1.67929 14.2016 1.2959 13.4492C1.08862 13.0424 0.975569 12.5566 0.917969 11.8516C0.860059 11.1425 0.859375 10.2438 0.859375 9.0166V6.98047C0.859375 5.75284 0.860025 4.85376 0.917969 4.14453C0.975569 3.43954 1.08862 2.95368 1.2959 2.54688C1.67925 1.79467 2.29076 1.18316 3.04297 0.799805C3.44977 0.592527 3.93563 0.479475 4.64062 0.421875C5.34986 0.363932 6.24893 0.363281 7.47656 0.363281ZM7.47656 1.09082C6.23732 1.09082 5.37294 1.09155 4.7002 1.14648C4.04032 1.2004 3.66039 1.30086 3.37305 1.44727C2.75752 1.76095 2.25704 2.26142 1.94336 2.87695C1.79695 3.1643 1.69649 3.54423 1.64258 4.2041C1.58765 4.87685 1.58691 5.74122 1.58691 6.98047V9.0166C1.58691 10.2559 1.58762 11.1202 1.64258 11.793C1.69649 12.4527 1.79699 12.8318 1.94336 13.1191C2.25702 13.7347 2.75752 14.2351 3.37305 14.5488C3.66039 14.6953 4.04029 14.7957 4.7002 14.8496C5.37293 14.9045 6.23727 14.9062 7.47656 14.9062H9.5127C10.752 14.9062 11.6163 14.9045 12.2891 14.8496C12.9488 14.7957 13.3279 14.6952 13.6152 14.5488C14.2309 14.2351 14.7312 13.7348 15.0449 13.1191C15.1913 12.8318 15.2918 12.4527 15.3457 11.793C15.4006 11.1202 15.4023 10.2559 15.4023 9.0166V6.98047C15.4023 5.74118 15.4006 4.87684 15.3457 4.2041C15.2918 3.54419 15.1913 3.1643 15.0449 2.87695C14.7312 2.26142 14.2308 1.76092 13.6152 1.44727C13.3279 1.3009 12.9488 1.2004 12.2891 1.14648C11.6163 1.09153 10.752 1.09082 9.5127 1.09082H7.47656Z" fill="url(#paint2_linear_721_1894)" stroke="#1C1D20" stroke-width="0.727273"/>
<defs>
<linearGradient id="paint0_linear_721_1894" x1="6.53537" y1="3.63477" x2="7.51703" y2="10.1482" gradientUnits="userSpaceOnUse">
<stop stop-color="#041F38"/>
<stop offset="1" stop-color="#041F38"/>
</linearGradient>
<linearGradient id="paint1_linear_721_1894" x1="12.5313" y1="2.9082" x2="12.6949" y2="3.99378" gradientUnits="userSpaceOnUse">
<stop stop-color="#041F38"/>
<stop offset="1" stop-color="#041F38"/>
</linearGradient>
<linearGradient id="paint2_linear_721_1894" x1="4.90079" y1="-4.50809e-08" x2="6.70049" y2="11.9413" gradientUnits="userSpaceOnUse">
<stop stop-color="#041F38"/>
<stop offset="1" stop-color="#041F38"/>
</linearGradient>
</defs>
</svg>
