<svg width="426" height="187" viewBox="0 0 426 187" fill="none" xmlns="http://www.w3.org/2000/svg">
<path d="M-0.000976562 148.804V126.709L78.4902 2.44141H95.9463V35.1562H84.7158L28.5635 124.023V125.488H136.352V148.804H-0.000976562ZM85.9365 184.326V142.09L86.1807 131.958V2.44141H112.304V184.326H85.9365ZM212.226 186.768C198.228 186.768 186.225 183.105 176.215 175.781C166.286 168.457 158.677 157.878 153.388 144.043C148.179 130.127 145.575 113.281 145.575 93.5059C145.575 73.8118 148.22 57.0068 153.51 43.0908C158.799 29.0934 166.409 18.4326 176.337 11.1084C186.347 3.7028 198.31 0 212.226 0C226.223 0 238.186 3.7028 248.114 11.1084C258.124 18.4326 265.733 29.0934 270.941 43.0908C276.231 57.0068 278.876 73.8118 278.876 93.5059C278.876 113.281 276.272 130.127 271.063 144.043C265.855 157.878 258.287 168.457 248.358 175.781C238.43 183.105 226.386 186.768 212.226 186.768ZM212.226 163.33C220.771 163.33 227.973 160.604 233.832 155.151C239.691 149.699 244.167 141.764 247.26 131.348C250.352 120.85 251.898 108.236 251.898 93.5059C251.898 78.6947 250.352 66.0807 247.26 55.6641C244.167 45.166 239.691 37.1908 233.832 31.7383C227.973 26.2044 220.771 23.4375 212.226 23.4375C199.612 23.4375 189.846 29.5817 182.929 41.8701C176.093 54.0771 172.675 71.2891 172.675 93.5059C172.675 108.236 174.221 120.85 177.313 131.348C180.406 141.764 184.882 149.699 190.741 155.151C196.682 160.604 203.843 163.33 212.226 163.33ZM288.954 148.804V126.709L367.445 2.44141H384.901V35.1562H373.671L317.519 124.023V125.488H425.307V148.804H288.954ZM374.892 184.326V142.09L375.136 131.958V2.44141H401.259V184.326H374.892Z" fill="black"/>
</svg>
