<svg width="149" height="96" viewBox="0 0 149 96" fill="none" xmlns="http://www.w3.org/2000/svg">
<path fill-rule="evenodd" clip-rule="evenodd" d="M78.5098 74.4102C81.5197 74.4102 84.0097 75.4102 85.9697 77.3701C87.9597 79.3301 88.9502 81.8704 88.9502 84.9404C88.9501 88.0102 87.9596 90.4703 85.9697 92.4902C83.9798 94.4801 81.4896 95.4697 78.5098 95.4697C75.5299 95.4697 73.0095 94.4805 71.0195 92.5205C69.0596 90.5606 68.0704 88.0103 68.0703 84.9404C68.0703 81.8706 69.0597 79.4701 71.0195 77.4502C72.9795 75.4302 75.4999 74.4102 78.5098 74.4102ZM78.5098 76.75C76.31 76.7501 74.4098 77.5098 72.9199 79.0596C71.4299 80.6096 70.7002 82.5704 70.7002 84.9404C70.7003 87.3102 71.4603 89.2101 72.9502 90.79C74.4401 92.3399 76.3099 93.1298 78.5098 93.1299C80.8197 93.1299 82.6899 92.34 84.1299 90.79C85.5898 89.2401 86.3202 87.2803 86.3203 84.9404C86.3203 82.6005 85.5603 80.6398 84.0703 79.0898C82.5803 77.5398 80.7098 76.75 78.5098 76.75Z" fill="#E07F60"/>
<path fill-rule="evenodd" clip-rule="evenodd" d="M19.7402 95.1797H17.0801L14.4502 88.9795H5.12012L2.51953 95.1797H0L8.7998 74.5898H10.9404L19.7402 95.1797ZM6.12012 86.6396H13.4902L9.80957 77.8896H9.7998L6.12012 86.6396Z" fill="#E07F60"/>
<path d="M35.4502 82.8896L41.2998 74.7002H44.25L37 84.7598L44.5195 95.1797H41.5596L35.3604 86.6602L29.1904 95.1797H26.2695L33.7803 84.7598L26.5898 74.7002H29.5098L35.4502 82.8896Z" fill="#E07F60"/>
<path d="M109.54 85.2002L116.91 74.7002H119.28V95.1797H116.79V78.6201L109.54 88.7998H109.16L101.82 78.71V95.1797H99.3301V74.7002H101.85L109.54 85.2002Z" fill="#E07F60"/>
<path fill-rule="evenodd" clip-rule="evenodd" d="M148.38 95.1797H145.72L143.09 88.9795H133.76L131.16 95.1797H128.64L137.44 74.5898H139.58L148.38 95.1797ZM134.76 86.6396H142.13L138.45 77.8896H138.44L134.76 86.6396Z" fill="#E07F60"/>
<path d="M57.0996 95.1699H54.6104V74.7002H57.0996V95.1699Z" fill="#E07F60"/>
<path fill-rule="evenodd" clip-rule="evenodd" d="M75.0596 0.0195312C82.6096 0.239531 89.4701 3.27035 94.6201 8.11035L102.56 0.169922L104.04 0.790039V58.8496L102.56 59.46L94.6504 51.5498C89.5005 56.4097 82.6402 59.4498 75.0703 59.6699V59.6904H73.3301V59.6699C65.7501 59.4499 58.86 56.3995 53.71 51.5195L45.8398 59.4502L44.3496 58.8398V1L45.8301 0.389648L53.6504 8.21973C58.8104 3.31991 65.7105 0.239526 73.3203 0.0195312V0H75.0596V0.0195312ZM54.9297 50.29C59.7697 54.86 66.2201 57.7204 73.3301 57.9404V31.7598L54.9297 50.29ZM75.0596 57.9404C82.1495 57.7204 88.5899 54.87 93.4199 50.3301L75.0596 31.9805V57.9404ZM46.0801 55.1602L50.0098 47.2998C48.3699 45.0399 47.04 42.54 46.0801 39.8701V55.1602ZM102.3 39.8799C101.35 42.5498 100.02 45.0496 98.3799 47.3096L102.3 55.1602V39.8799ZM97.2002 48.8398C96.7702 49.3498 96.3301 49.8501 95.8701 50.3301L100.01 54.4697L97.2002 48.8398ZM48.4102 54.3896L52.4697 50.29C52.0298 49.8201 51.5897 49.3398 51.1797 48.8398L48.4102 54.3896ZM94.6504 49.0996C95.2502 48.4598 95.8098 47.8099 96.3496 47.1201L88.0996 30.6104H76.1602L94.6504 49.0996ZM52.04 47.1201C52.57 47.79 53.1203 48.4396 53.7002 49.0596L72.0195 30.6104H60.2998L52.04 47.1201ZM53.6602 10.6797C48.9602 15.6996 46.0802 22.4498 46.0801 29.8496C46.0801 35.6595 47.85 41.0598 50.8799 45.5498L63.4297 20.4502L53.6602 10.6797ZM84.8799 20.3096L89.1602 28.8799H89.1904V28.9297L97.5 45.54C100.53 41.0601 102.3 35.6602 102.3 29.8604V29.8301C102.3 22.3802 99.37 15.6003 94.6201 10.5703L84.8799 20.3096ZM76.2998 28.8799H87.2197L83.5801 21.5996L76.2998 28.8799ZM61.1602 28.8701H71.8496L64.7197 21.7402L61.1602 28.8701ZM65.54 20.1104L73.3203 27.8799V4.5498L65.54 20.1104ZM75.0596 27.6602L82.7598 19.96L75.0596 4.5498V27.6602ZM46.0801 19.8203C47.47 15.9304 49.6598 12.4101 52.4297 9.4502L46.0801 3.09961V19.8203ZM95.8496 9.33984C98.6696 12.3198 100.89 15.8803 102.3 19.8203V2.88965L95.8496 9.33984ZM72.7695 1.76953C65.8497 2.10963 59.5998 4.97053 54.8799 9.44043L64.25 18.8096L72.7695 1.76953ZM84.0596 18.6602L93.3896 9.33984C88.6897 4.93001 82.48 2.10954 75.6201 1.76953L84.0596 18.6602Z" fill="#E07F60"/>
</svg>
