<svg width="122" height="122" viewBox="0 0 122 122" fill="none" xmlns="http://www.w3.org/2000/svg">
<path d="M27.5642 2.71111C28.0955 2.71111 28.5957 2.99849 28.8696 3.45938L44.167 29.238C44.4368 29.6934 44.449 30.2668 44.1995 30.7332L34.7147 48.4015C33.2548 51.1207 33.7401 54.412 35.9225 56.5944L50.6655 71.3375L65.4086 86.0805C66.7194 87.3913 68.464 88.1138 70.3197 88.1138C71.4611 88.1138 72.5957 87.8278 73.6029 87.2883L91.2712 77.8035C91.4922 77.6855 91.7402 77.6232 91.9897 77.6232C92.2621 77.6232 92.5305 77.6964 92.765 77.836L118.544 93.1334C119.204 93.5252 119.469 94.3467 119.163 95.0434C116.921 100.144 112.921 109.315 111.316 113.407C111.117 113.914 110.855 114.311 110.536 114.588C106.933 117.707 102.284 119.289 96.7124 119.289C80.6613 119.289 57.6656 106.265 36.7006 85.2997C23.2779 71.877 12.7913 57.218 7.17255 44.023C2.96897 34.1478 -0.402299 20.4838 7.41519 11.4666C7.69172 11.1481 8.0889 10.8851 8.59588 10.6872C12.6883 9.08222 21.8586 5.08062 26.9596 2.83989C27.1534 2.75449 27.3568 2.71111 27.5642 2.71111ZM27.5642 0C26.9962 0 26.4201 0.115222 25.8697 0.357867C20.8569 2.56064 11.6676 6.57038 7.60632 8.16316C6.75097 8.49798 5.96746 8.99682 5.36559 9.69087C-9.52654 26.8712 8.61892 61.0529 34.7825 87.2164C54.4381 106.872 78.6144 122 96.7124 122C102.705 122 108.035 120.339 112.309 116.635C113.003 116.033 113.502 115.249 113.837 114.395C115.43 110.334 119.44 101.145 121.642 96.1319C122.503 94.1745 121.763 91.8918 119.924 90.8005L94.1463 75.5031C93.4821 75.1086 92.7352 74.9107 91.9869 74.9107C91.2997 74.9107 90.6111 75.0774 89.9861 75.4136L72.3178 84.8984C71.6875 85.2373 71.0002 85.4014 70.317 85.4014C69.2204 85.4014 68.1373 84.9757 67.324 84.1624L52.5809 69.4194L37.8379 54.6763C36.5176 53.356 36.2194 51.3268 37.1019 49.6825L46.5867 32.0142C47.2875 30.7074 47.255 29.1282 46.4972 27.8526L31.2011 2.07536C30.4163 0.753689 29.016 0 27.5642 0Z" fill="white"/>
</svg>
