<svg width="14" height="14" viewBox="0 0 14 14" fill="none" xmlns="http://www.w3.org/2000/svg">
<path d="M0.580078 13.6367H1.13184L3.3623 11.0186C3.98113 10.2932 4.54714 9.63153 4.95996 9.15137C5.16633 8.91133 5.33469 8.71613 5.45215 8.58105C5.51075 8.51366 5.55694 8.46075 5.58887 8.4248C5.60472 8.40695 5.61799 8.39349 5.62695 8.38379C5.63137 8.37901 5.63544 8.37434 5.63867 8.37109C5.64016 8.3696 5.64242 8.3671 5.64453 8.36523C5.64559 8.36431 5.64731 8.36289 5.64941 8.36133C5.65069 8.36039 5.65324 8.35816 5.65625 8.35645C5.65771 8.35562 5.66234 8.35451 5.66797 8.35254V8.35156C5.66901 8.35121 5.67085 8.35185 5.67188 8.35156C5.67344 8.35112 5.67501 8.34996 5.67676 8.34961V8.35156C5.69868 8.347 5.71548 8.35297 5.71875 8.35449C5.72486 8.35739 5.72927 8.36064 5.73145 8.3623C5.73569 8.36559 5.73938 8.3692 5.74121 8.37109C5.74515 8.3752 5.75008 8.38006 5.75391 8.38477C5.76198 8.39468 5.77303 8.40916 5.78613 8.42676C5.8125 8.4622 5.8501 8.51434 5.89746 8.58105C5.9924 8.71479 6.12746 8.90918 6.29297 9.14844C6.62395 9.62692 7.07624 10.2879 7.57031 11.0156L9.35059 13.6367H11.2871C12.221 13.6367 12.7121 13.6362 12.9668 13.6299C13.0394 13.6281 13.0914 13.6227 13.1279 13.6201C13.1245 13.615 13.121 13.6091 13.1172 13.6035C13.0802 13.5487 13.0265 13.4693 12.958 13.3682C12.8204 13.165 12.6225 12.8737 12.3799 12.5166C11.8946 11.8024 11.2288 10.8235 10.5 9.75293C9.77122 8.68236 9.10796 7.7073 8.62695 6.99902C8.38653 6.64501 8.19149 6.35767 8.05664 6.1582C7.98922 6.05847 7.93698 5.97991 7.90137 5.92676C7.88368 5.90036 7.86958 5.88023 7.86035 5.86621C7.85581 5.8593 7.8522 5.85368 7.84961 5.84961C7.84836 5.84765 7.84679 5.84558 7.8457 5.84375L7.8418 5.83398C7.84127 5.83273 7.83953 5.83008 7.83887 5.82812L7.83594 5.80762L7.84082 5.78223L7.84766 5.76855C7.84916 5.76634 7.85127 5.76438 7.85254 5.7627C7.85527 5.75908 7.85899 5.75439 7.86328 5.74902C7.87206 5.73807 7.88488 5.7221 7.90137 5.70215C7.93447 5.6621 7.98347 5.60358 8.0459 5.5293C8.17098 5.38047 8.35229 5.16719 8.5752 4.9043C9.02146 4.37798 9.63636 3.65394 10.3135 2.86035L12.6807 0.0791016L12.2529 0.0722656C12.0181 0.0695865 11.8756 0.0696673 11.7881 0.0742188C11.7443 0.0765042 11.7171 0.0792852 11.7002 0.0830078C11.6832 0.0867678 11.6836 0.0895544 11.6875 0.0859375L11.6865 0.0869141L11.6768 0.0986328C11.6683 0.108197 11.6561 0.121878 11.6406 0.139648C11.6098 0.175096 11.5656 0.226053 11.5098 0.291016C11.3977 0.421333 11.2377 0.608123 11.043 0.835938L9.54297 2.59375C8.96392 3.2749 8.43515 3.89312 8.0498 4.33984C7.85727 4.56304 7.70023 4.7436 7.59082 4.86816C7.53629 4.93024 7.49365 4.97888 7.46387 5.01172C7.44904 5.02806 7.43635 5.04088 7.42773 5.0498C7.42365 5.05403 7.41963 5.0582 7.41602 5.06152C7.4145 5.06292 7.41167 5.06578 7.4082 5.06836C7.40667 5.06948 7.40228 5.07342 7.39648 5.07617C7.39368 5.0775 7.38761 5.07958 7.37988 5.08105L7.33691 5.07617L7.32715 5.06836C7.32337 5.06549 7.32023 5.0634 7.31934 5.0625C7.31811 5.06126 7.31699 5.06023 7.31641 5.05957C7.31524 5.05825 7.31503 5.05639 7.31445 5.05566C7.3133 5.05422 7.31157 5.05312 7.31055 5.05176C7.30834 5.0488 7.30508 5.04467 7.30176 5.04004C7.2951 5.03074 7.2863 5.01701 7.27441 5C7.25029 4.96549 7.21525 4.91487 7.1709 4.85059C7.08218 4.72198 6.95469 4.53724 6.79883 4.30957C6.48707 3.85418 6.05955 3.22789 5.5918 2.54004L3.91016 0.0664062H0.121094C0.131053 0.081227 0.144383 0.101201 0.161133 0.125977C0.198034 0.180556 0.251368 0.258722 0.318359 0.357422C0.452627 0.555243 0.644225 0.836912 0.87793 1.18066C1.34532 1.86813 1.98313 2.80645 2.67871 3.83008C3.37421 4.85359 4.00702 5.78668 4.46582 6.46582C4.69523 6.80541 4.88112 7.08236 5.00977 7.27441C5.07402 7.37034 5.12421 7.44551 5.1582 7.49707C5.17512 7.52273 5.18834 7.54268 5.19727 7.55664C5.20169 7.56357 5.20535 7.56981 5.20801 7.57422C5.20924 7.57626 5.21068 7.57877 5.21191 7.58105C5.21248 7.58211 5.21384 7.58373 5.21484 7.58594C5.21538 7.58713 5.21677 7.58979 5.21777 7.59277C5.21821 7.59405 5.22069 7.60282 5.2207 7.61426C5.2207 7.62483 5.2187 7.63296 5.21777 7.63574L5.20996 7.65137C5.20831 7.65401 5.20641 7.65634 5.20508 7.6582C5.2021 7.66236 5.19881 7.66807 5.19434 7.67383C5.1852 7.68558 5.17127 7.70178 5.1543 7.72266C5.12008 7.76474 5.0694 7.82582 5.00488 7.90332C4.87581 8.05838 4.68919 8.28074 4.45898 8.55371C3.99851 9.09972 3.36359 9.84936 2.66406 10.6709C1.44392 12.1043 0.402975 13.3287 0.145508 13.6309C0.225746 13.634 0.360119 13.6367 0.580078 13.6367ZM10.748 12.9082L9.85254 12.9004L9.81738 12.8994L9.79785 12.8711L5.66895 6.9082C4.53343 5.26763 3.50123 3.77466 2.75293 2.69141C2.37883 2.14985 2.07585 1.71043 1.86621 1.40625C1.76157 1.25442 1.68026 1.13617 1.625 1.05566C1.59737 1.01541 1.57576 0.983792 1.56152 0.962891C1.55454 0.952638 1.5486 0.944942 1.54492 0.939453C1.54319 0.936874 1.54215 0.934354 1.54102 0.932617C1.54053 0.931875 1.53969 0.930698 1.53906 0.929688L1.53516 0.921875L1.52832 0.893555L1.53809 0.860352C1.54307 0.851902 1.54833 0.845712 1.55176 0.842773C1.55917 0.836448 1.56654 0.833228 1.56934 0.832031C1.57502 0.829601 1.58004 0.828561 1.58203 0.828125C1.58629 0.827209 1.59068 0.826399 1.59277 0.826172C1.59766 0.825642 1.6041 0.825539 1.61035 0.825195C1.62323 0.824494 1.64145 0.823867 1.66406 0.823242C1.71001 0.821974 1.7762 0.821317 1.85742 0.820312L2.49121 0.816406L3.38477 0.819336H3.41895L3.43945 0.847656L7.55957 6.80273C8.69247 8.44069 9.72399 9.93264 10.4727 11.0166C10.8469 11.5585 11.1511 11.9981 11.3613 12.3037C11.4664 12.4565 11.5479 12.5766 11.6035 12.6582C11.6312 12.6989 11.6525 12.7304 11.667 12.752C11.6742 12.7627 11.6806 12.7713 11.6846 12.7773C11.6864 12.7802 11.6881 12.7829 11.6895 12.7852C11.6901 12.7863 11.6914 12.7883 11.6924 12.79C11.6929 12.7909 11.6936 12.7923 11.6943 12.7939C11.6948 12.7949 11.6957 12.7973 11.6963 12.7988C11.6971 12.8011 11.6984 12.8075 11.6992 12.8115L11.6963 12.8125C11.6974 12.8191 11.7013 12.8256 11.7002 12.833C11.698 12.8478 11.6914 12.859 11.6855 12.8662C11.6753 12.8788 11.6633 12.8849 11.6592 12.8867C11.6495 12.8911 11.6393 12.8925 11.6338 12.8936C11.6209 12.8959 11.6034 12.898 11.584 12.8994C11.5443 12.9023 11.4856 12.9038 11.4102 12.9053C11.2586 12.9083 11.0343 12.9095 10.748 12.9082ZM7.41699 4.9707H7.41504L7.41699 4.97168L7.41797 4.97266L7.41699 4.9707Z" fill="#071332" stroke="url(#paint0_linear_721_2731)" stroke-width="0.133333"/>
<defs>
<linearGradient id="paint0_linear_721_2731" x1="3.64418" y1="13.7031" x2="5.23792" y2="3.49005" gradientUnits="userSpaceOnUse">
<stop stop-color="#041F38"/>
<stop offset="1" stop-color="#041F38"/>
</linearGradient>
</defs>
</svg>
