<svg width="14" height="15" viewBox="0 0 14 15" fill="none" xmlns="http://www.w3.org/2000/svg">
<path d="M9.71265 4.53906C10.8164 4.53906 11.875 5.01697 12.6555 5.86765C13.436 6.71833 13.8745 7.8721 13.8745 9.07514V14.3672H11.0999V9.07514C11.0999 8.67412 10.9538 8.28953 10.6936 8.00597C10.4334 7.72241 10.0806 7.56311 9.71265 7.56311C9.34472 7.56311 8.99186 7.72241 8.73169 8.00597C8.47152 8.28953 8.32536 8.67412 8.32536 9.07514V14.3672H5.55078V9.07514C5.55078 7.8721 5.98926 6.71833 6.76977 5.86765C7.55027 5.01697 8.60886 4.53906 9.71265 4.53906Z" fill="black"/>
<path d="M2.77458 5.29297H0V14.3651H2.77458V5.29297Z" fill="black"/>
<path d="M1.38729 3.02405C2.15347 3.02405 2.77458 2.34709 2.77458 1.51202C2.77458 0.676957 2.15347 0 1.38729 0C0.621111 0 0 0.676957 0 1.51202C0 2.34709 0.621111 3.02405 1.38729 3.02405Z" fill="black"/>
</svg>
