<svg width="114" height="56" viewBox="0 0 114 56" fill="none" xmlns="http://www.w3.org/2000/svg">
<path fill-rule="evenodd" clip-rule="evenodd" d="M60.6112 20.8474C60.6113 17.5929 64.1094 15.0425 67.9576 15.988C70.2191 16.5377 72.0564 18.7366 72.0564 20.8148V25.8288C72.0562 28.1267 70.3188 30.0614 67.9449 30.6771C67.7204 30.7432 67.6707 31.0069 67.8825 31.1169L68.8703 31.6229L68.9572 31.6779C69.2569 31.8537 69.5068 32.0081 69.7566 32.14C70.6812 32.6568 71.9559 33.3715 71.9559 35.2187V51.0736C71.9559 51.1505 71.994 51.2168 72.0564 51.2608C72.1188 51.2938 72.1686 51.3378 72.2185 51.3708C72.9432 51.8766 73.2809 52.1078 74.1805 52.1078C75.0798 52.1077 75.417 51.8764 76.1415 51.3708C77.0911 50.7111 78.4031 49.8092 80.8143 49.8091C83.2257 49.8091 84.5385 50.7111 85.488 51.3708C86.2125 51.8764 86.5498 52.1078 87.4491 52.1078C88.3487 52.1078 88.6865 51.8766 89.4111 51.3708C90.3607 50.7111 91.6726 49.8091 94.0839 49.8091C96.4952 49.8091 97.8072 50.7111 98.7567 51.3708C99.4814 51.8766 99.8191 52.1078 100.719 52.1078C101.618 52.1078 101.955 51.8764 102.68 51.3708C103.629 50.7111 104.942 49.8091 107.353 49.8091C109.765 49.8092 111.077 50.7111 112.026 51.3708C112.676 51.8215 113.013 52.0527 113.7 52.0966L113.713 52.0855C113.875 52.1075 114 52.2286 114 52.3715V55.7028C114 55.8676 113.838 55.9887 113.663 55.9888C111.46 55.9122 110.236 55.0712 109.325 54.4452L109.315 54.4383C108.59 53.9327 108.253 53.7022 107.353 53.7021C106.454 53.7021 106.116 53.9326 105.391 54.4383C104.442 55.098 103.13 55.9999 100.719 56C98.3074 56 96.9955 55.098 96.0459 54.4383C95.3213 53.9325 94.9835 53.7021 94.0839 53.7021C93.1843 53.7021 92.8465 53.9325 92.1219 54.4383C91.1723 55.098 89.8604 56 87.4491 56C85.0378 56 83.7259 55.098 82.7763 54.4383C82.0518 53.9326 81.7139 53.7021 80.8143 53.7021C79.9151 53.7022 79.5777 53.9327 78.8532 54.4383C77.9038 55.098 76.5917 55.9999 74.1805 56C71.769 56 70.4563 55.098 69.5067 54.4383C69.2697 54.2846 67.7528 53.2644 67.7331 53.2512C67.6082 53.1742 67.5457 53.0532 67.5457 52.9213V35.6474C67.5457 35.5595 67.4956 35.4826 67.4207 35.4386C67.2469 35.3437 66.9172 35.1674 66.5569 34.9748C66.1664 34.7661 65.7397 34.5375 65.4343 34.3717C65.2471 34.2838 65.0217 34.3938 65.0214 34.5805V53.3938C65.0214 53.6027 64.8342 53.7674 64.5968 53.7674H61.0358C60.7985 53.7674 60.6112 53.6027 60.6112 53.3938V20.8474ZM66.9834 19.7917C65.9964 19.3629 65.0214 19.9901 65.0214 20.8148V25.8941C65.0839 26.6748 66.0339 27.2466 66.9834 26.8287C67.3956 26.6527 67.6453 26.2682 67.6453 25.8615V20.771C67.6453 20.3641 67.383 19.9788 66.9707 19.8029L66.9834 19.7917Z" fill="white"/>
<path fill-rule="evenodd" clip-rule="evenodd" d="M19.3041 10.0556C22.6276 9.89069 25.3512 12.255 25.3512 15.1908V18.9842C25.3512 21.4471 23.3519 23.4925 20.7156 23.9433C20.68 23.9438 20.7022 24.004 20.7038 24.0086L22.2657 24.8118L22.3525 24.8667C22.6522 25.0425 22.9023 25.1962 23.152 25.328C24.0765 25.8448 25.351 26.5598 25.3512 28.4067V51.1234C25.3512 51.1344 25.3639 51.1569 25.3639 51.1569C25.4139 51.1898 25.4641 51.2227 25.5016 51.2557L25.5084 51.2608C26.1902 51.7518 26.4791 51.9592 27.2635 51.9592C28.0475 51.9591 28.3357 51.7517 29.0176 51.2608L29.0244 51.2557L29.0498 51.2376C29.9243 50.6108 31.2338 49.6726 33.5849 49.6725C35.9364 49.6725 37.2465 50.6107 38.121 51.2376L38.1533 51.2608C38.835 51.7518 39.1232 51.9592 39.9074 51.9592C40.6917 51.9592 40.9805 51.7518 41.6625 51.2608L41.6693 51.2557L41.6712 51.2548C42.5083 50.6501 43.77 49.7384 45.9926 49.6725L45.9545 49.6502C46.0918 49.6502 46.1925 49.738 46.1927 49.8477V53.3448C46.1927 53.4547 46.1049 53.5424 45.9799 53.5424C45.3451 53.5862 45.0576 53.7942 44.4376 54.2416L44.4308 54.2459L44.4054 54.2639C43.5309 54.8908 42.2216 55.8299 39.8703 55.8299C37.5188 55.8299 36.2087 54.8908 35.3342 54.2639L35.302 54.2407C34.6204 53.7499 34.332 53.5424 33.5478 53.5424C32.7635 53.5424 32.4748 53.7505 31.7928 54.2416L31.7859 54.2459C30.9113 54.8726 29.5744 55.8299 27.2254 55.8299C24.8841 55.8298 23.5728 54.8898 22.6981 54.2631L22.6903 54.2571L20.9781 53.1575C20.9283 53.1244 20.903 53.0364 20.903 53.0364V28.6928C20.8412 28.6536 18.3459 27.3123 18.3172 27.2969V30.3859C18.3172 30.5288 18.1797 30.6503 18.0175 30.6505H14.2184C14.0561 30.6503 13.9187 30.5287 13.9187 30.3859V15.092C13.9187 12.4092 16.3053 10.2096 19.3041 10.0556ZM19.5169 13.959C18.8422 14.014 18.3299 14.5422 18.3299 15.147V19.1491C18.4174 19.7538 19.0421 20.2159 19.7668 20.1499L19.7912 20.1602C20.4533 20.0942 20.9537 19.5668 20.9537 18.973V15.1135C20.9536 14.432 20.2912 13.8932 19.5169 13.959Z" fill="white"/>
<path d="M71.3438 4.60775C71.7437 4.60777 72.0681 4.90447 72.0681 5.25631V7.8617C72.0681 8.21354 71.7437 8.49993 71.3438 8.49995L71.3565 8.47761H58.5623C58.325 8.47761 58.1369 8.64255 58.1367 8.85128V9.8632C58.1367 10.0721 58.3374 10.2369 58.5623 10.2369H71.3185C71.7182 10.2369 72.0435 10.5337 72.0437 10.8854V13.4917C72.0437 13.8545 71.7183 14.1402 71.3185 14.1402H58.5623C58.325 14.1402 58.1369 14.3052 58.1367 14.5139V53.3826C58.1367 53.5915 57.9495 53.7571 57.7121 53.7571H54.1511C53.9139 53.757 53.7265 53.5914 53.7265 53.3826V4.98142C53.7265 4.77264 53.9137 4.60795 54.1385 4.60775H71.3438Z" fill="white"/>
<path fill-rule="evenodd" clip-rule="evenodd" d="M12.6693 31.8488C15.7804 31.8488 18.3172 34.0917 18.3172 36.8405V48.6717C18.3171 51.4205 15.7804 53.6635 12.6693 53.6635C9.55828 53.6634 7.02239 51.4315 7.02232 48.6717V36.8405C7.02236 34.0918 9.55826 31.8489 12.6693 31.8488ZM12.6693 35.7522C11.9821 35.7523 11.4325 36.247 11.4325 36.8517V48.6829C11.4327 49.2875 11.9947 49.7824 12.6693 49.7825C13.3438 49.7825 13.9059 49.2875 13.906 48.6829V36.8517C13.906 36.247 13.3439 35.7522 12.6693 35.7522Z" fill="white"/>
<path fill-rule="evenodd" clip-rule="evenodd" d="M6.70996 3.46956C9.24614 3.46975 11.3075 5.28382 11.3076 7.52668V25.5591C11.3076 27.8021 9.24621 29.616 6.70996 29.6162H4.79771C4.57285 29.6163 4.39847 29.7706 4.39847 29.9684V52.2229C4.39847 52.4098 4.22315 52.5751 3.99825 52.5751H0.400216C0.18783 52.5751 0 52.4208 0 52.2229V3.82175C0 3.63484 0.175323 3.46956 0.400216 3.46956H6.70996ZM4.84749 7.36175C4.62279 7.36193 4.44825 7.51615 4.44825 7.71395V25.3727C4.44846 25.5703 4.62292 25.7239 4.84749 25.724H6.50985C6.72204 25.724 6.90887 25.5704 6.90909 25.3727V7.71395C6.90909 7.52707 6.73466 7.36183 6.50985 7.36175H4.84749Z" fill="white"/>
<path fill-rule="evenodd" clip-rule="evenodd" d="M80.3653 0C83.5137 0.00013776 86.0874 2.1337 86.0874 4.76152V48.3144C86.0872 48.5342 85.8872 48.7104 85.6374 48.7104H82.1262C81.8766 48.7102 81.6774 48.5341 81.6772 48.3144V14.2175C81.6772 14.1736 81.5767 14.1291 81.5767 14.1291H79.1402C79.0904 14.1293 79.0407 14.2175 79.0407 14.2175V48.3144C79.0405 48.5342 78.8405 48.7104 78.5907 48.7104H75.0795C74.8298 48.7103 74.6297 48.5341 74.6295 48.3144V4.76152C74.6295 2.13362 77.1914 0 80.3526 0H80.3653ZM80.3399 3.89305C79.6277 3.89308 79.028 4.28873 79.028 4.76152V10.1493C79.0281 10.1915 79.1203 10.2336 79.1275 10.2369H81.5523C81.6013 10.2365 81.6501 10.1523 81.6518 10.1493V4.76152C81.6518 4.28871 81.0521 3.89305 80.3399 3.89305Z" fill="white"/>
<path d="M99.5561 27.8845C99.7934 27.8845 99.9932 28.0496 99.9934 28.2693V34.559C99.9934 35.8565 99.4314 37.033 98.5068 37.9676C98.4819 37.9896 98.5068 38.0449 98.5068 38.0449H98.5322C99.4566 38.9685 100.019 40.1561 100.019 41.4535V48.3805C100.019 48.5673 99.8438 48.7104 99.644 48.7104H95.9708C95.7585 48.7104 95.5961 48.5563 95.5959 48.3805V41.4535C95.5959 40.6398 94.6212 39.9579 93.4592 39.9579H93.2718C93.0594 39.9579 92.8969 40.1118 92.8969 40.2878V48.3805C92.8967 48.5672 92.7345 48.7103 92.5348 48.7104H88.8616C88.6618 48.7104 88.4986 48.5563 88.4984 48.3805V28.2805C88.4986 28.0717 88.6862 27.8958 88.9358 27.8956H92.4596C92.6969 27.8956 92.8968 28.0607 92.8969 28.2805V35.6697C92.897 35.8786 93.0969 36.0545 93.3342 36.0545H93.4592C94.6212 36.0545 95.5959 35.3727 95.5959 34.559V28.2693C95.5962 28.0606 95.796 27.8845 96.0332 27.8845H99.5561Z" fill="white"/>
<path fill-rule="evenodd" clip-rule="evenodd" d="M108.291 4.61806C111.439 4.61822 114 6.88372 114 9.65446V43.6517C114 46.4334 111.439 48.6879 108.291 48.6881C105.142 48.6881 102.58 46.4225 102.58 43.6517V9.65446C102.58 6.87263 105.142 4.61806 108.291 4.61806ZM108.291 8.49995C107.566 8.49995 106.99 9.01673 106.99 9.65446V43.6517C106.99 44.2894 107.578 44.8062 108.291 44.8062C109.003 44.806 109.59 44.2893 109.59 43.6517V9.65446C109.59 9.01683 109.003 8.50011 108.291 8.49995Z" fill="white"/>
<path d="M45.855 4.47031C46.1047 4.47031 46.3048 4.64584 46.305 4.87662V7.98883C46.3048 8.20863 46.1047 8.39515 45.855 8.39515H32.273V48.1873C32.273 48.3962 32.1106 48.5618 31.8982 48.5618H28.2504C28.0505 48.5618 27.8755 48.3962 27.8755 48.1873H27.8628V8.39515H14.3433C14.0937 8.39497 13.8818 8.21949 13.8816 7.98883V4.87662C13.8818 4.65693 14.0812 4.47048 14.3433 4.47031H45.855Z" fill="white"/>
<path fill-rule="evenodd" clip-rule="evenodd" d="M40.5702 10.0445C43.731 10.0446 46.3048 12.3207 46.305 15.1023V43.4816C46.305 46.2743 43.7311 48.5393 40.5702 48.5395C37.409 48.5395 34.8344 46.2634 34.8344 43.4816V15.1023C34.8346 12.3096 37.4091 10.0445 40.5702 10.0445ZM40.5702 13.9263C39.8331 13.9263 39.2457 14.4537 39.2456 15.1023V43.4816C39.2456 44.1303 39.8455 44.6584 40.5702 44.6584C41.2946 44.6583 41.8938 44.1302 41.8938 43.4816V15.1023C41.8936 14.4539 41.2945 13.9265 40.5702 13.9263Z" fill="white"/>
<path d="M49.6814 27.5572C49.8432 27.4155 50.1132 27.4155 50.2749 27.5572L52.356 29.3903C52.5173 29.532 52.5173 29.7675 52.356 29.9092L50.2749 31.7423C50.1132 31.884 49.8432 31.884 49.6814 31.7423L47.6003 29.9092C47.439 29.7675 47.439 29.532 47.6003 29.3903L49.6814 27.5572Z" fill="white"/>
<path d="M92.6968 4.60775C92.8968 4.60775 93.059 4.75052 93.059 4.92645V7.38924C93.059 7.41123 93.0843 7.45538 93.0843 7.45538L95.308 9.87437C95.3829 9.96233 95.5335 9.91818 95.5335 9.80823V4.97026C95.5335 4.78346 95.708 4.61827 95.9327 4.61806H99.5317C99.744 4.61813 99.9309 4.7724 99.931 4.97026V25.7739C99.9308 25.9606 99.7564 26.1251 99.5317 26.1252H95.9327C95.7081 26.125 95.5337 25.9715 95.5335 25.7739V16.3281C95.5332 16.3069 95.5098 16.266 95.5081 16.2629L93.2844 13.8439C93.2096 13.756 93.0593 13.7995 93.059 13.9092V25.8065C93.059 25.9824 92.8968 26.1252 92.6968 26.1252H89.0109C88.8111 26.1251 88.6488 25.9824 88.6488 25.8065V4.92645C88.6488 4.75057 88.8111 4.60784 89.0109 4.60775H92.6968Z" fill="white"/>
</svg>
